ffmpeg started on 2025-09-30 at 20:10:02
Report written to "D:\Convert\FFMetrics\reports\psnr_report-6.txt"
Log level: 32
Command line:
ffmpeg -hide_banner -nostdin -i "F:\\\xc0\xed\xe8\xec\xe5\\\xce\xed\xe3\xee\xe8\xed\xe3\xe8\\!_37_\xc7\xe8\xec\xe0_2025\\JamClub\\\xc4\xee\xea\xf2\xee\xf0 \xd1\xf2\xee\xf3\xed\\\xd2\xc2-4\\JamClub_Dr_Stone_Science_Future_06_1080p_HEVC.mkv" -i "F:\\\xc0\xed\xe8\xec\xe5\\\xce\xed\xe3\xee\xe8\xed\xe3\xe8\\!_37_\xc7\xe8\xec\xe0_2025\\JamClub\\\xc4\xee\xea\xf2\xee\xf0 \xd1\xf2\xee\xf3\xed\\\xd2\xc2-4\\JamClub_Dr_Stone_Science_Future_06_1080p.mp4" -lavfi "[0:v]settb=AVTB,setpts=PTS-STARTPTS,format=pix_fmts=yuv420p10le,fps=24000/1001,scale=1920:1080:flags=bicubic:out_range=limited:out_chroma_loc=left,colorspace=format=yuv420p10:range=tv:primaries=bt709:trc=bt709:space=bt709:fast=0[main];[1:v]settb=AVTB,setpts=PTS-STARTPTS,format=pix_fmts=yuv420p,fps=24000/1001,scale=1920:1080:flags=bicubic:out_range=limited:out_chroma_loc=left,colorspace=format=yuv420p:irange=tv:iprimaries=bt709:itrc=bt709:ispace=bt709:range=tv:primaries=bt709:trc=bt709:space=bt709:fast=0[ref];[main][ref]psnr=eof_action=endall:stats_file='D\\:/Convert/FFMetrics/logs/psnr_logfile-6.txt'" -f null -
Input #0, matroska,webm, from 'F:\Аниме\Онгоинги\!_37_Зима_2025\JamClub\Доктор Стоун\ТВ-4\JamClub_Dr_Stone_Science_Future_06_1080p_HEVC.mkv':
  Metadata:
    COMPATIBLE_BRANDS: mp42mp41
    MAJOR_BRAND     : mp42
    MINOR_VERSION   : 0
    ENCODER         : Lavf61.7.100
  Duration: 00:24:22.08, start: -0.021000, bitrate: 1724 kb/s
  Stream #0:0(eng): Video: hevc (Main 10), yuv420p10le(tv, bt709, progressive), 1920x1080 [SAR 1:1 DAR 16:9], 23.98 fps, 23.98 tbr, 1k tbn (default)
      Metadata:
        HANDLER_NAME    : Mainconcept Video Media Handler
        VENDOR_ID       : [0][0][0][0]
        ENCODER         : Lavc61.19.100 libx265
        BPS             : 1525227
        DURATION        : 00:24:22.043708333
        NUMBER_OF_FRAMES: 35054
        NUMBER_OF_BYTES : 278743449
        _STATISTICS_WRITING_APP: mkvpropedit v94.0 ('Initiate') 64-bit
        _STATISTICS_WRITING_DATE_UTC: 2025-09-30 15:19:31
        _STATISTICS_TAGS: BPS DURATION NUMBER_OF_FRAMES NUMBER_OF_BYTES
  Stream #0:1(eng): Audio: aac (LC), 48000 Hz, stereo, fltp (default)
      Metadata:
        HANDLER_NAME    : #Mainconcept MP4 Sound Media Handler
        VENDOR_ID       : [0][0][0][0]
        ENCODER         : Lavc61.19.100 aac
        BPS             : 195302
        DURATION        : 00:24:22.058000000
        NUMBER_OF_FRAMES: 68535
        NUMBER_OF_BYTES : 35693019
        _STATISTICS_WRITING_APP: mkvpropedit v94.0 ('Initiate') 64-bit
        _STATISTICS_WRITING_DATE_UTC: 2025-09-30 15:19:31
        _STATISTICS_TAGS: BPS DURATION NUMBER_OF_FRAMES NUMBER_OF_BYTES
Input #1, mov,mp4,m4a,3gp,3g2,mj2, from 'F:\Аниме\Онгоинги\!_37_Зима_2025\JamClub\Доктор Стоун\ТВ-4\JamClub_Dr_Stone_Science_Future_06_1080p.mp4':
  Metadata:
    major_brand     : mp42
    minor_version   : 0
    compatible_brands: mp42mp41
    creation_time   : 2025-02-16T14:06:02.000000Z
  Duration: 00:24:22.04, start: 0.000000, bitrate: 5068 kb/s
  Stream #1:0[0x1](eng): Video: h264 (Main) (avc1 / 0x31637661), yuv420p(progressive), 1920x1080 [SAR 1:1 DAR 16:9], 4747 kb/s, 23.98 fps, 23.98 tbr, 24k tbn (default)
      Metadata:
        creation_time   : 2025-02-16T14:06:02.000000Z
        handler_name    : Mainconcept Video Media Handler
        vendor_id       : [0][0][0][0]
        encoder         : AVC Coding
  Stream #1:1[0x2](eng): Audio: aac (LC) (mp4a / 0x6134706D), 48000 Hz, stereo, fltp, 317 kb/s (default)
      Metadata:
        creation_time   : 2025-02-16T14:06:02.000000Z
        handler_name    : #Mainconcept MP4 Sound Media Handler
        vendor_id       : [0][0][0][0]
Stream mapping:
  Stream #0:0 (hevc) -> settb:default
  Stream #1:0 (h264) -> settb:default
  psnr:default -> Stream #0:0 (wrapped_avframe)
  Stream #0:1 -> #0:1 (aac (native) -> pcm_s16le (native))
Output #0, null, to 'pipe:':
  Metadata:
    COMPATIBLE_BRANDS: mp42mp41
    MAJOR_BRAND     : mp42
    MINOR_VERSION   : 0
    encoder         : Lavf61.7.100
  Stream #0:0: Video: wrapped_avframe, yuv420p10le(tv, bt709, progressive), 1920x1080 [SAR 1:1 DAR 16:9], q=2-31, 200 kb/s, 23.98 fps, 23.98 tbn
      Metadata:
        encoder         : Lavc61.19.100 wrapped_avframe
  Stream #0:1(eng): Audio: pcm_s16le, 48000 Hz, stereo, s16, 1536 kb/s (default)
      Metadata:
        HANDLER_NAME    : #Mainconcept MP4 Sound Media Handler
        VENDOR_ID       : [0][0][0][0]
        _STATISTICS_TAGS: BPS DURATION NUMBER_OF_FRAMES NUMBER_OF_BYTES
        BPS             : 195302
        DURATION        : 00:24:22.058000000
        NUMBER_OF_FRAMES: 68535
        NUMBER_OF_BYTES : 35693019
        _STATISTICS_WRITING_APP: mkvpropedit v94.0 ('Initiate') 64-bit
        _STATISTICS_WRITING_DATE_UTC: 2025-09-30 15:19:31
        encoder         : Lavc61.19.100 pcm_s16le
frame=  111 fps=0.0 q=-0.0 size=N/A time=00:00:04.62 bitrate=N/A speed=9.11x    frame=  256 fps=251 q=-0.0 size=N/A time=00:00:10.67 bitrate=N/A speed=10.5x    frame=  434 fps=281 q=-0.0 size=N/A time=00:00:18.10 bitrate=N/A speed=11.7x    frame=  625 fps=304 q=-0.0 size=N/A time=00:00:26.06 bitrate=N/A speed=12.7x    frame=  820 fps=319 q=-0.0 size=N/A time=00:00:34.20 bitrate=N/A speed=13.3x    frame= 1003 fps=325 q=-0.0 size=N/A time=00:00:41.83 bitrate=N/A speed=13.6x    frame= 1216 fps=337 q=-0.0 size=N/A time=00:00:50.71 bitrate=N/A speed=14.1x    frame= 1418 fps=344 q=-0.0 size=N/A time=00:00:59.14 bitrate=N/A speed=14.4x    frame= 1627 fps=351 q=-0.0 size=N/A time=00:01:07.85 bitrate=N/A speed=14.7x    frame= 1825 fps=355 q=-0.0 size=N/A time=00:01:16.11 bitrate=N/A speed=14.8x    frame= 2036 fps=359 q=-0.0 size=N/A time=00:01:24.91 bitrate=N/A speed=  15x    frame= 2237 fps=362 q=-0.0 size=N/A time=00:01:33.30 bitrate=N/A speed=15.1x    frame= 2427 fps=362 q=-0.0 size=N/A time=00:01:41.22 bitrate=N/A speed=15.1x    frame= 2623 fps=364 q=-0.0 size=N/A time=00:01:49.40 bitrate=N/A speed=15.2x    frame= 2831 fps=366 q=-0.0 size=N/A time=00:01:58.07 bitrate=N/A speed=15.3x    frame= 3025 fps=367 q=-0.0 size=N/A time=00:02:06.16 bitrate=N/A speed=15.3x    frame= 3233 fps=369 q=-0.0 size=N/A time=00:02:14.84 bitrate=N/A speed=15.4x    frame= 3431 fps=370 q=-0.0 size=N/A time=00:02:23.10 bitrate=N/A speed=15.4x    frame= 3605 fps=368 q=-0.0 size=N/A time=00:02:30.35 bitrate=N/A speed=15.3x    frame= 3744 fps=363 q=-0.0 size=N/A time=00:02:36.15 bitrate=N/A speed=15.1x    frame= 3883 fps=359 q=-0.0 size=N/A time=00:02:41.95 bitrate=N/A speed=  15x    frame= 4020 fps=355 q=-0.0 size=N/A time=00:02:47.66 bitrate=N/A speed=14.8x    frame= 4178 fps=352 q=-0.0 size=N/A time=00:02:54.25 bitrate=N/A speed=14.7x    frame= 4328 fps=350 q=-0.0 size=N/A time=00:03:00.51 bitrate=N/A speed=14.6x    frame= 4489 fps=348 q=-0.0 size=N/A time=00:03:07.22 bitrate=N/A speed=14.5x    frame= 4613 fps=344 q=-0.0 size=N/A time=00:03:12.40 bitrate=N/A speed=14.4x    frame= 4753 fps=341 q=-0.0 size=N/A time=00:03:18.23 bitrate=N/A speed=14.2x    frame= 4886 fps=338 q=-0.0 size=N/A time=00:03:23.78 bitrate=N/A speed=14.1x    frame= 5011 fps=335 q=-0.0 size=N/A time=00:03:29.00 bitrate=N/A speed=  14x    frame= 5144 fps=333 q=-0.0 size=N/A time=00:03:34.54 bitrate=N/A speed=13.9x    frame= 5333 fps=334 q=-0.0 size=N/A time=00:03:42.43 bitrate=N/A speed=13.9x    frame= 5480 fps=332 q=-0.0 size=N/A time=00:03:48.56 bitrate=N/A speed=13.9x    frame= 5638 fps=332 q=-0.0 size=N/A time=00:03:55.15 bitrate=N/A speed=13.8x    frame= 5833 fps=333 q=-0.0 size=N/A time=00:04:03.28 bitrate=N/A speed=13.9x    frame= 5999 fps=332 q=-0.0 size=N/A time=00:04:10.20 bitrate=N/A speed=13.9x    frame= 6180 fps=333 q=-0.0 size=N/A time=00:04:17.75 bitrate=N/A speed=13.9x    frame= 6349 fps=333 q=-0.0 size=N/A time=00:04:24.80 bitrate=N/A speed=13.9x    frame= 6509 fps=332 q=-0.0 size=N/A time=00:04:31.47 bitrate=N/A speed=13.9x    frame= 6667 fps=332 q=-0.0 size=N/A time=00:04:38.06 bitrate=N/A speed=13.8x    frame= 6844 fps=332 q=-0.0 size=N/A time=00:04:45.45 bitrate=N/A speed=13.8x    frame= 7013 fps=332 q=-0.0 size=N/A time=00:04:52.50 bitrate=N/A speed=13.8x    frame= 7180 fps=332 q=-0.0 size=N/A time=00:04:59.46 bitrate=N/A speed=13.8x    frame= 7306 fps=330 q=-0.0 size=N/A time=00:05:04.72 bitrate=N/A speed=13.7x    frame= 7484 fps=330 q=-0.0 size=N/A time=00:05:12.14 bitrate=N/A speed=13.8x    frame= 7677 fps=331 q=-0.0 size=N/A time=00:05:20.19 bitrate=N/A speed=13.8x    frame= 7894 fps=333 q=-0.0 size=N/A time=00:05:29.24 bitrate=N/A speed=13.9x    frame= 8092 fps=334 q=-0.0 size=N/A time=00:05:37.50 bitrate=N/A speed=13.9x    frame= 8269 fps=334 q=-0.0 size=N/A time=00:05:44.88 bitrate=N/A speed=13.9x    frame= 8413 fps=333 q=-0.0 size=N/A time=00:05:50.89 bitrate=N/A speed=13.9x    frame= 8570 fps=332 q=-0.0 size=N/A time=00:05:57.44 bitrate=N/A speed=13.9x    frame= 8768 fps=333 q=-0.0 size=N/A time=00:06:05.69 bitrate=N/A speed=13.9x    frame= 8965 fps=334 q=-0.0 size=N/A time=00:06:13.91 bitrate=N/A speed=13.9x    frame= 9157 fps=335 q=-0.0 size=N/A time=00:06:21.92 bitrate=N/A speed=  14x    frame= 9338 fps=335 q=-0.0 size=N/A time=00:06:29.47 bitrate=N/A speed=  14x    frame= 9525 fps=336 q=-0.0 size=N/A time=00:06:37.27 bitrate=N/A speed=  14x    frame= 9718 fps=336 q=-0.0 size=N/A time=00:06:45.32 bitrate=N/A speed=  14x    frame= 9889 fps=336 q=-0.0 size=N/A time=00:06:52.45 bitrate=N/A speed=  14x    frame=10045 fps=336 q=-0.0 size=N/A time=00:06:58.96 bitrate=N/A speed=  14x    frame=10246 fps=337 q=-0.0 size=N/A time=00:07:07.34 bitrate=N/A speed=  14x    frame=10444 fps=337 q=-0.0 size=N/A time=00:07:15.60 bitrate=N/A speed=14.1x    frame=10647 fps=338 q=-0.0 size=N/A time=00:07:24.06 bitrate=N/A speed=14.1x    frame=10856 fps=339 q=-0.0 size=N/A time=00:07:32.78 bitrate=N/A speed=14.2x    frame=11041 fps=340 q=-0.0 size=N/A time=00:07:40.50 bitrate=N/A speed=14.2x    frame=11236 fps=340 q=-0.0 size=N/A time=00:07:48.63 bitrate=N/A speed=14.2x    frame=11423 fps=341 q=-0.0 size=N/A time=00:07:56.43 bitrate=N/A speed=14.2x    frame=11597 fps=341 q=-0.0 size=N/A time=00:08:03.69 bitrate=N/A speed=14.2x    frame=11802 fps=341 q=-0.0 size=N/A time=00:08:12.24 bitrate=N/A speed=14.2x    frame=11997 fps=342 q=-0.0 size=N/A time=00:08:20.37 bitrate=N/A speed=14.3x    frame=12199 fps=343 q=-0.0 size=N/A time=00:08:28.79 bitrate=N/A speed=14.3x    frame=12396 fps=343 q=-0.0 size=N/A time=00:08:37.01 bitrate=N/A speed=14.3x    frame=12588 fps=344 q=-0.0 size=N/A time=00:08:45.02 bitrate=N/A speed=14.3x    frame=12782 fps=344 q=-0.0 size=N/A time=00:08:53.11 bitrate=N/A speed=14.4x    frame=12993 fps=345 q=-0.0 size=N/A time=00:09:01.91 bitrate=N/A speed=14.4x    frame=13197 fps=346 q=-0.0 size=N/A time=00:09:10.42 bitrate=N/A speed=14.4x    frame=13399 fps=346 q=-0.0 size=N/A time=00:09:18.84 bitrate=N/A speed=14.4x    frame=13591 fps=347 q=-0.0 size=N/A time=00:09:26.85 bitrate=N/A speed=14.5x    frame=13774 fps=347 q=-0.0 size=N/A time=00:09:34.49 bitrate=N/A speed=14.5x    frame=13976 fps=347 q=-0.0 size=N/A time=00:09:42.91 bitrate=N/A speed=14.5x    frame=14153 fps=347 q=-0.0 size=N/A time=00:09:50.29 bitrate=N/A speed=14.5x    frame=14331 fps=347 q=-0.0 size=N/A time=00:09:57.72 bitrate=N/A speed=14.5x    frame=14533 fps=348 q=-0.0 size=N/A time=00:10:06.14 bitrate=N/A speed=14.5x    frame=14711 fps=348 q=-0.0 size=N/A time=00:10:13.57 bitrate=N/A speed=14.5x    frame=14889 fps=348 q=-0.0 size=N/A time=00:10:20.99 bitrate=N/A speed=14.5x    frame=15086 fps=348 q=-0.0 size=N/A time=00:10:29.21 bitrate=N/A speed=14.5x    frame=15264 fps=348 q=-0.0 size=N/A time=00:10:36.63 bitrate=N/A speed=14.5x    frame=15457 fps=348 q=-0.0 size=N/A time=00:10:44.68 bitrate=N/A speed=14.5x    frame=15655 fps=349 q=-0.0 size=N/A time=00:10:52.94 bitrate=N/A speed=14.6x    frame=15844 fps=349 q=-0.0 size=N/A time=00:11:00.82 bitrate=N/A speed=14.6x    frame=16032 fps=349 q=-0.0 size=N/A time=00:11:08.66 bitrate=N/A speed=14.6x    frame=16213 fps=349 q=-0.0 size=N/A time=00:11:16.21 bitrate=N/A speed=14.6x    frame=16395 fps=349 q=-0.0 size=N/A time=00:11:23.80 bitrate=N/A speed=14.6x    frame=16574 fps=349 q=-0.0 size=N/A time=00:11:31.27 bitrate=N/A speed=14.6x    frame=16764 fps=349 q=-0.0 size=N/A time=00:11:39.19 bitrate=N/A speed=14.6x    frame=16968 fps=350 q=-0.0 size=N/A time=00:11:47.70 bitrate=N/A speed=14.6x    frame=17159 fps=350 q=-0.0 size=N/A time=00:11:55.67 bitrate=N/A speed=14.6x    frame=17373 fps=351 q=-0.0 size=N/A time=00:12:04.59 bitrate=N/A speed=14.6x    frame=17546 fps=351 q=-0.0 size=N/A time=00:12:11.81 bitrate=N/A speed=14.6x    frame=17742 fps=351 q=-0.0 size=N/A time=00:12:19.98 bitrate=N/A speed=14.6x    frame=17936 fps=351 q=-0.0 size=N/A time=00:12:28.08 bitrate=N/A speed=14.7x    frame=18139 fps=352 q=-0.0 size=N/A time=00:12:36.54 bitrate=N/A speed=14.7x    frame=18316 fps=352 q=-0.0 size=N/A time=00:12:43.92 bitrate=N/A speed=14.7x    frame=18510 fps=352 q=-0.0 size=N/A time=00:12:52.02 bitrate=N/A speed=14.7x    frame=18717 fps=352 q=-0.0 size=N/A time=00:13:00.65 bitrate=N/A speed=14.7x    frame=18900 fps=352 q=-0.0 size=N/A time=00:13:08.28 bitrate=N/A speed=14.7x    frame=19089 fps=352 q=-0.0 size=N/A time=00:13:16.17 bitrate=N/A speed=14.7x    frame=19285 fps=353 q=-0.0 size=N/A time=00:13:24.34 bitrate=N/A speed=14.7x    frame=19472 fps=353 q=-0.0 size=N/A time=00:13:32.14 bitrate=N/A speed=14.7x    frame=19661 fps=353 q=-0.0 size=N/A time=00:13:40.02 bitrate=N/A speed=14.7x    frame=19852 fps=353 q=-0.0 size=N/A time=00:13:47.99 bitrate=N/A speed=14.7x    frame=20037 fps=353 q=-0.0 size=N/A time=00:13:55.70 bitrate=N/A speed=14.7x    frame=20238 fps=354 q=-0.0 size=N/A time=00:14:04.09 bitrate=N/A speed=14.7x    frame=20439 fps=354 q=-0.0 size=N/A time=00:14:12.47 bitrate=N/A speed=14.8x    frame=20641 fps=354 q=-0.0 size=N/A time=00:14:20.90 bitrate=N/A speed=14.8x    frame=20840 fps=354 q=-0.0 size=N/A time=00:14:29.20 bitrate=N/A speed=14.8x    frame=21011 fps=354 q=-0.0 size=N/A time=00:14:36.33 bitrate=N/A speed=14.8x    frame=21200 fps=354 q=-0.0 size=N/A time=00:14:44.21 bitrate=N/A speed=14.8x    frame=21366 fps=354 q=-0.0 size=N/A time=00:14:51.14 bitrate=N/A speed=14.8x    frame=21568 fps=354 q=-0.0 size=N/A time=00:14:59.56 bitrate=N/A speed=14.8x    frame=21746 fps=354 q=-0.0 size=N/A time=00:15:06.98 bitrate=N/A speed=14.8x    frame=21942 fps=355 q=-0.0 size=N/A time=00:15:15.16 bitrate=N/A speed=14.8x    frame=22131 fps=355 q=-0.0 size=N/A time=00:15:23.04 bitrate=N/A speed=14.8x    frame=22312 fps=355 q=-0.0 size=N/A time=00:15:30.59 bitrate=N/A speed=14.8x    frame=22503 fps=355 q=-0.0 size=N/A time=00:15:38.56 bitrate=N/A speed=14.8x    frame=22691 fps=355 q=-0.0 size=N/A time=00:15:46.40 bitrate=N/A speed=14.8x    frame=22876 fps=355 q=-0.0 size=N/A time=00:15:54.11 bitrate=N/A speed=14.8x    frame=23055 fps=355 q=-0.0 size=N/A time=00:16:01.58 bitrate=N/A speed=14.8x    frame=23239 fps=355 q=-0.0 size=N/A time=00:16:09.25 bitrate=N/A speed=14.8x    frame=23445 fps=355 q=-0.0 size=N/A time=00:16:17.85 bitrate=N/A speed=14.8x    frame=23651 fps=355 q=-0.0 size=N/A time=00:16:26.44 bitrate=N/A speed=14.8x    frame=23798 fps=355 q=-0.0 size=N/A time=00:16:32.57 bitrate=N/A speed=14.8x    frame=23996 fps=355 q=-0.0 size=N/A time=00:16:40.83 bitrate=N/A speed=14.8x    frame=24205 fps=356 q=-0.0 size=N/A time=00:16:49.55 bitrate=N/A speed=14.8x    frame=24402 fps=356 q=-0.0 size=N/A time=00:16:57.76 bitrate=N/A speed=14.8x    frame=24590 fps=356 q=-0.0 size=N/A time=00:17:05.60 bitrate=N/A speed=14.8x    frame=24777 fps=356 q=-0.0 size=N/A time=00:17:13.40 bitrate=N/A speed=14.8x    frame=24969 fps=356 q=-0.0 size=N/A time=00:17:21.41 bitrate=N/A speed=14.8x    frame=25136 fps=356 q=-0.0 size=N/A time=00:17:28.38 bitrate=N/A speed=14.8x    frame=25312 fps=356 q=-0.0 size=N/A time=00:17:35.72 bitrate=N/A speed=14.8x    frame=25504 fps=356 q=-0.0 size=N/A time=00:17:43.72 bitrate=N/A speed=14.8x    frame=25717 fps=356 q=-0.0 size=N/A time=00:17:52.61 bitrate=N/A speed=14.9x    frame=25914 fps=356 q=-0.0 size=N/A time=00:18:00.82 bitrate=N/A speed=14.9x    frame=26123 fps=357 q=-0.0 size=N/A time=00:18:09.54 bitrate=N/A speed=14.9x    frame=26322 fps=357 q=-0.0 size=N/A time=00:18:17.84 bitrate=N/A speed=14.9x    frame=26534 fps=357 q=-0.0 size=N/A time=00:18:26.68 bitrate=N/A speed=14.9x    frame=26731 fps=357 q=-0.0 size=N/A time=00:18:34.90 bitrate=N/A speed=14.9x    frame=26933 fps=358 q=-0.0 size=N/A time=00:18:43.33 bitrate=N/A speed=14.9x    frame=27136 fps=358 q=-0.0 size=N/A time=00:18:51.79 bitrate=N/A speed=14.9x    frame=27351 fps=358 q=-0.0 size=N/A time=00:19:00.76 bitrate=N/A speed=14.9x    frame=27549 fps=358 q=-0.0 size=N/A time=00:19:09.02 bitrate=N/A speed=  15x    frame=27747 fps=359 q=-0.0 size=N/A time=00:19:17.28 bitrate=N/A speed=  15x    frame=27942 fps=359 q=-0.0 size=N/A time=00:19:25.41 bitrate=N/A speed=  15x    frame=28140 fps=359 q=-0.0 size=N/A time=00:19:33.67 bitrate=N/A speed=  15x    frame=28341 fps=359 q=-0.0 size=N/A time=00:19:42.05 bitrate=N/A speed=  15x    frame=28524 fps=359 q=-0.0 size=N/A time=00:19:49.68 bitrate=N/A speed=  15x    frame=28727 fps=359 q=-0.0 size=N/A time=00:19:58.15 bitrate=N/A speed=  15x    frame=28919 fps=359 q=-0.0 size=N/A time=00:20:06.16 bitrate=N/A speed=  15x    frame=29110 fps=359 q=-0.0 size=N/A time=00:20:14.12 bitrate=N/A speed=  15x    frame=29314 fps=360 q=-0.0 size=N/A time=00:20:22.63 bitrate=N/A speed=  15x    frame=29508 fps=360 q=-0.0 size=N/A time=00:20:30.72 bitrate=N/A speed=  15x    frame=29711 fps=360 q=-0.0 size=N/A time=00:20:39.19 bitrate=N/A speed=  15x    frame=29910 fps=360 q=-0.0 size=N/A time=00:20:47.49 bitrate=N/A speed=  15x    frame=30098 fps=360 q=-0.0 size=N/A time=00:20:55.33 bitrate=N/A speed=  15x    frame=30270 fps=360 q=-0.0 size=N/A time=00:21:02.51 bitrate=N/A speed=  15x    frame=30451 fps=360 q=-0.0 size=N/A time=00:21:10.06 bitrate=N/A speed=  15x    frame=30655 fps=360 q=-0.0 size=N/A time=00:21:18.56 bitrate=N/A speed=  15x    frame=30846 fps=360 q=-0.0 size=N/A time=00:21:26.53 bitrate=N/A speed=  15x    frame=31041 fps=360 q=-0.0 size=N/A time=00:21:34.66 bitrate=N/A speed=  15x    frame=31247 fps=361 q=-0.0 size=N/A time=00:21:43.26 bitrate=N/A speed=  15x    frame=31456 fps=361 q=-0.0 size=N/A time=00:21:51.97 bitrate=N/A speed=  15x    frame=31652 fps=361 q=-0.0 size=N/A time=00:22:00.15 bitrate=N/A speed=15.1x    frame=31845 fps=361 q=-0.0 size=N/A time=00:22:08.20 bitrate=N/A speed=15.1x    frame=32034 fps=361 q=-0.0 size=N/A time=00:22:16.08 bitrate=N/A speed=15.1x    frame=32223 fps=361 q=-0.0 size=N/A time=00:22:23.96 bitrate=N/A speed=15.1x    frame=32408 fps=361 q=-0.0 size=N/A time=00:22:31.68 bitrate=N/A speed=15.1x    frame=32577 fps=361 q=-0.0 size=N/A time=00:22:38.73 bitrate=N/A speed=15.1x    frame=32786 fps=361 q=-0.0 size=N/A time=00:22:47.44 bitrate=N/A speed=15.1x    frame=32980 fps=361 q=-0.0 size=N/A time=00:22:55.54 bitrate=N/A speed=15.1x    frame=33172 fps=361 q=-0.0 size=N/A time=00:23:03.54 bitrate=N/A speed=15.1x    frame=33343 fps=361 q=-0.0 size=N/A time=00:23:10.68 bitrate=N/A speed=15.1x    frame=33533 fps=361 q=-0.0 size=N/A time=00:23:18.60 bitrate=N/A speed=15.1x    frame=33720 fps=361 q=-0.0 size=N/A time=00:23:26.40 bitrate=N/A speed=15.1x    frame=33913 fps=361 q=-0.0 size=N/A time=00:23:34.45 bitrate=N/A speed=15.1x    frame=34104 fps=361 q=-0.0 size=N/A time=00:23:42.42 bitrate=N/A speed=15.1x    frame=34305 fps=361 q=-0.0 size=N/A time=00:23:50.80 bitrate=N/A speed=15.1x    frame=34443 fps=361 q=-0.0 size=N/A time=00:23:56.56 bitrate=N/A speed=15.1x    frame=34587 fps=360 q=-0.0 size=N/A time=00:24:02.56 bitrate=N/A speed=  15x    frame=34765 fps=360 q=-0.0 size=N/A time=00:24:09.99 bitrate=N/A speed=  15x    frame=34950 fps=360 q=-0.0 size=N/A time=00:24:17.70 bitrate=N/A speed=  15x    [Parsed_psnr_12 @ 00000186b2efdc40] PSNR y:46.642295 u:49.785609 v:50.090428 average:47.489204 min:37.816455 max:inf
[out#0/null @ 000001869ca84ac0] video:15062KiB audio:274140KiB subtitle:0KiB other streams:0KiB global headers:0KiB muxing overhead: unknown
frame=35054 fps=361 q=-0.0 Lsize=N/A time=00:24:22.04 bitrate=N/A speed=  15x    
